<svg version="1.1" xmlns="http://www.w3.org/2000/svg" viewBox="0 0 2400 1600" width="100%" height="100%">
  <defs>
    <filter id="shadow" x="-50%" y="-50%" width="200%" height="200%">
      <feGaussianBlur in="SourceAlpha" stdDeviation="3"/>
      <feOffset dx="2" dy="2" result="offsetblur"/>
      <feComponentTransfer>
        <feFuncA type="linear" slope="0.3"/>
      </feComponentTransfer>
      <feMerge>
        <feMergeNode/>
        <feMergeNode in="SourceGraphic"/>
      </feMerge>
    </filter>
    <marker id="arrowhead" markerWidth="10" markerHeight="10" refX="9" refY="5" orient="auto">
      <polygon points="0 0, 10 5, 0 10" fill="#333" stroke="#333"/>
    </marker>
    <marker id="arrowhead-blue" markerWidth="10" markerHeight="10" refX="9" refY="5" orient="auto">
      <polygon points="0 0, 10 5, 0 10" fill="#2196f3" stroke="#2196f3"/>
    </marker>
    <marker id="arrowhead-green" markerWidth="10" markerHeight="10" refX="9" refY="5" orient="auto">
      <polygon points="0 0, 10 5, 0 10" fill="#4caf50" stroke="#4caf50"/>
    </marker>
  </defs>
  
  <!-- Background -->
  <rect width="2400" height="1600" fill="#f8f9fa"/>
  
  <!-- Title Section -->
  <rect x="0" y="0" width="2400" height="80" fill="#2c3e50"/>
  <text x="1200" y="50" text-anchor="middle" font-family="Arial, sans-serif" font-size="28" font-weight="bold" fill="#ffffff">
    System Architecture Diagram
  </text>
  
  <!-- USERS SECTION -->
  <g id="users-section">
    <!-- Section Header -->
    <rect x="40" y="120" width="480" height="1440" fill="#fff3e0" stroke="#ff9800" stroke-width="3" rx="8"/>
    <rect x="50" y="130" width="460" height="50" fill="#ff9800" rx="5"/>
    <text x="280" y="160" text-anchor="middle" font-family="Arial, sans-serif" font-size="22" font-weight="bold" fill="#ffffff">USERS</text>
    
    <!-- Issuer -->
    <g transform="translate(100, 220)">
      <rect x="0" y="0" width="140" height="120" fill="#ffffff" stroke="#ff9800" stroke-width="2" rx="8" filter="url(#shadow)"/>
      <circle cx="70" cy="40" r="25" fill="#ff9800" opacity="0.2"/>
      <path d="M 70 25 Q 70 20 75 20 Q 70 20 70 15 Q 70 20 65 20 Q 70 20 70 25 M 70 25 L 65 35 L 75 35 Z" fill="#ff9800"/>
      <text x="70" y="70" text-anchor="middle" font-family="Arial, sans-serif" font-size="16" font-weight="bold" fill="#333">Issuer</text>
      <text x="70" y="90" text-anchor="middle" font-family="Arial, sans-serif" font-size="11" fill="#666">register</text>
      <text x="70" y="105" text-anchor="middle" font-family="Arial, sans-serif" font-size="11" fill="#666">upload asset</text>
    </g>
    
    <!-- Investor -->
    <g transform="translate(280, 220)">
      <rect x="0" y="0" width="140" height="120" fill="#ffffff" stroke="#ff9800" stroke-width="2" rx="8" filter="url(#shadow)"/>
      <circle cx="70" cy="40" r="25" fill="#ff9800" opacity="0.2"/>
      <path d="M 70 25 Q 70 20 75 20 Q 70 20 70 15 Q 70 20 65 20 Q 70 20 70 25 M 70 25 L 65 35 L 75 35 Z" fill="#ff9800"/>
      <text x="70" y="70" text-anchor="middle" font-family="Arial, sans-serif" font-size="16" font-weight="bold" fill="#333">Investor</text>
      <text x="70" y="90" text-anchor="middle" font-family="Arial, sans-serif" font-size="11" fill="#666">register</text>
      <text x="70" y="105" text-anchor="middle" font-family="Arial, sans-serif" font-size="11" fill="#666">discover/buy</text>
    </g>
    
    <!-- Admin -->
    <g transform="translate(200, 380)">
      <rect x="0" y="0" width="140" height="120" fill="#ffffff" stroke="#ff9800" stroke-width="2" rx="8" filter="url(#shadow)"/>
      <circle cx="70" cy="40" r="25" fill="#ff9800" opacity="0.2"/>
      <path d="M 70 25 Q 70 20 75 20 Q 70 20 70 15 Q 70 20 65 20 Q 70 20 70 25 M 70 25 L 65 35 L 75 35 Z" fill="#ff9800"/>
      <text x="70" y="70" text-anchor="middle" font-family="Arial, sans-serif" font-size="16" font-weight="bold" fill="#333">Admin</text>
      <text x="70" y="90" text-anchor="middle" font-family="Arial, sans-serif" font-size="11" fill="#666">monitor</text>
    </g>
    
    <!-- User Actions Lines -->
    <line x1="170" y1="260" x2="590" y2="260" stroke="#ff9800" stroke-width="2" marker-end="url(#arrowhead)"/>
    <text x="380" y="255" text-anchor="middle" font-family="Arial, sans-serif" font-size="11" fill="#ff9800">register</text>
    
    <line x1="170" y1="290" x2="590" y2="290" stroke="#ff9800" stroke-width="2" marker-end="url(#arrowhead)"/>
    <text x="380" y="285" text-anchor="middle" font-family="Arial, sans-serif" font-size="11" fill="#ff9800">upload asset</text>
    
    <line x1="350" y1="260" x2="590" y2="260" stroke="#ff9800" stroke-width="2" marker-end="url(#arrowhead)"/>
    
    <line x1="270" y1="440" x2="590" y2="440" stroke="#ff9800" stroke-width="2" marker-end="url(#arrowhead)"/>
    <text x="430" y="435" text-anchor="middle" font-family="Arial, sans-serif" font-size="11" fill="#ff9800">monitor</text>
  </g>
  
  <!-- OFF-CHAIN SECTION -->
  <g id="offchain-section">
    <!-- Section Header -->
    <rect x="580" y="120" width="900" height="1440" fill="#e3f2fd" stroke="#2196f3" stroke-width="3" rx="8"/>
    <rect x="590" y="130" width="880" height="50" fill="#2196f3" rx="5"/>
    <text x="1030" y="160" text-anchor="middle" font-family="Arial, sans-serif" font-size="22" font-weight="bold" fill="#ffffff">OFF-CHAIN</text>
    
    <!-- Frontend Dashboard -->
    <g transform="translate(650, 220)">
      <rect x="0" y="0" width="180" height="100" fill="#ffffff" stroke="#2196f3" stroke-width="2" rx="8" filter="url(#shadow)"/>
      <rect x="20" y="20" width="40" height="40" fill="#2196f3" opacity="0.2" rx="3"/>
      <circle cx="40" cy="40" r="10" fill="#2196f3"/>
      <circle cx="40" cy="40" r="5" fill="#ffffff"/>
      <text x="90" y="45" text-anchor="middle" font-family="Arial, sans-serif" font-size="14" font-weight="bold" fill="#333">Issuer / Investor</text>
      <text x="90" y="65" text-anchor="middle" font-family="Arial, sans-serif" font-size="12" fill="#666">Dashboard</text>
      <text x="90" y="82" text-anchor="middle" font-family="Arial, sans-serif" font-size="10" fill="#999">Dashboard / Monitoring</text>
    </g>
    
    <!-- Express + Node.js -->
    <g transform="translate(900, 220)">
      <rect x="0" y="0" width="200" height="100" fill="#ffffff" stroke="#2196f3" stroke-width="2" rx="8" filter="url(#shadow)"/>
      <text x="100" y="35" text-anchor="middle" font-family="Arial, sans-serif" font-size="28" font-weight="bold" fill="#2196f3">JS</text>
      <text x="100" y="55" text-anchor="middle" font-family="Arial, sans-serif" font-size="14" font-weight="bold" fill="#333">Express</text>
      <text x="100" y="72" text-anchor="middle" font-family="Arial, sans-serif" font-size="11" fill="#666">+ Node.js</text>
    </g>
    
    <!-- Connection: Dashboard to Express -->
    <line x1="830" y1="270" x2="900" y2="270" stroke="#2196f3" stroke-width="2" marker-end="url(#arrowhead-blue)"/>
    <text x="865" y="265" text-anchor="middle" font-family="Arial, sans-serif" font-size="10" fill="#2196f3">API Call</text>
    
    <!-- External Services Row -->
    <text x="1030" y="370" text-anchor="middle" font-family="Arial, sans-serif" font-size="16" font-weight="bold" fill="#333">External Services</text>
    
    <!-- IPFS (Pinata) -->
    <g transform="translate(650, 400)">
      <rect x="0" y="0" width="160" height="90" fill="#ffffff" stroke="#2196f3" stroke-width="2" rx="8" filter="url(#shadow)"/>
      <ellipse cx="80" cy="30" rx="30" ry="12" fill="#2196f3" opacity="0.2"/>
      <ellipse cx="80" cy="35" rx="30" ry="12" fill="#2196f3" opacity="0.2"/>
      <ellipse cx="80" cy="40" rx="30" ry="12" fill="#2196f3" opacity="0.2"/>
      <text x="80" y="65" text-anchor="middle" font-family="Arial, sans-serif" font-size="12" font-weight="bold" fill="#333">IPFS</text>
      <text x="80" y="80" text-anchor="middle" font-family="Arial, sans-serif" font-size="10" fill="#666">(Pinata)</text>
    </g>
    
    <!-- Fireblocks -->
    <g transform="translate(850, 400)">
      <rect x="0" y="0" width="160" height="90" fill="#ffffff" stroke="#2196f3" stroke-width="2" rx="8" filter="url(#shadow)"/>
      <path d="M 80 25 L 95 40 L 80 55 L 65 40 Z" fill="#ff9800"/>
      <text x="80" y="75" text-anchor="middle" font-family="Arial, sans-serif" font-size="12" font-weight="bold" fill="#333">Fireblocks</text>
      <text x="80" y="88" text-anchor="middle" font-family="Arial, sans-serif" font-size="10" fill="#666">Vaults &amp; Tx</text>
    </g>
    
    <!-- Truvera -->
    <g transform="translate(1050, 400)">
      <rect x="0" y="0" width="160" height="90" fill="#ffffff" stroke="#2196f3" stroke-width="2" rx="8" filter="url(#shadow)"/>
      <path d="M 65 35 L 95 35 L 95 50 L 65 50 Z" fill="#4caf50"/>
      <path d="M 70 38 L 90 38 L 90 47 L 70 47 Z" fill="#ffffff"/>
      <text x="80" y="75" text-anchor="middle" font-family="Arial, sans-serif" font-size="12" font-weight="bold" fill="#333">Truvera</text>
      <text x="80" y="88" text-anchor="middle" font-family="Arial, sans-serif" font-size="10" fill="#666">Verification</text>
    </g>
    
    <!-- Prisma + MySQL -->
    <g transform="translate(1250, 400)">
      <rect x="0" y="0" width="160" height="90" fill="#ffffff" stroke="#2196f3" stroke-width="2" rx="8" filter="url(#shadow)"/>
      <ellipse cx="80" cy="25" rx="35" ry="10" fill="#2196f3" opacity="0.2"/>
      <ellipse cx="80" cy="30" rx="35" ry="10" fill="#2196f3" opacity="0.2"/>
      <ellipse cx="80" cy="35" rx="35" ry="10" fill="#2196f3" opacity="0.2"/>
      <text x="80" y="65" text-anchor="middle" font-family="Arial, sans-serif" font-size="12" font-weight="bold" fill="#333">Prisma</text>
      <text x="80" y="80" text-anchor="middle" font-family="Arial, sans-serif" font-size="10" fill="#666">+ MySQL</text>
    </g>
    
    <!-- Connections from Express to Services -->
    <line x1="1000" y1="320" x2="730" y2="445" stroke="#2196f3" stroke-width="2" marker-end="url(#arrowhead-blue)"/>
    <text x="850" y="375" text-anchor="middle" font-family="Arial, sans-serif" font-size="10" fill="#2196f3">Store Metadata</text>
    
    <line x1="1000" y1="320" x2="930" y2="445" stroke="#2196f3" stroke-width="2" marker-end="url(#arrowhead-blue)"/>
    <text x="960" y="375" text-anchor="middle" font-family="Arial, sans-serif" font-size="10" fill="#2196f3">Create Vault</text>
    
    <line x1="1000" y1="320" x2="1130" y2="445" stroke="#2196f3" stroke-width="2" marker-end="url(#arrowhead-blue)"/>
    <text x="1065" y="375" text-anchor="middle" font-family="Arial, sans-serif" font-size="10" fill="#2196f3">Verify Asset</text>
    
    <line x1="1000" y1="320" x2="1330" y2="445" stroke="#2196f3" stroke-width="2" marker-end="url(#arrowhead-blue)"/>
    <text x="1165" y="375" text-anchor="middle" font-family="Arial, sans-serif" font-size="10" fill="#2196f3">Store Record</text>
    
    <!-- Flow Details Boxes -->
    <!-- Registration Flow -->
    <g transform="translate(650, 530)">
      <rect x="0" y="0" width="380" height="280" fill="#fff9e6" stroke="#ff9800" stroke-width="2" rx="8"/>
      <rect x="0" y="0" width="380" height="30" fill="#ff9800" rx="8"/>
      <text x="190" y="22" text-anchor="middle" font-family="Arial, sans-serif" font-size="14" font-weight="bold" fill="#ffffff">User Registration Flow</text>
      <text x="15" y="55" font-family="Arial, sans-serif" font-size="12" fill="#333">1. User submits registration</text>
      <text x="15" y="75" font-family="Arial, sans-serif" font-size="12" fill="#333">2. POST /api/auth/register</text>
      <text x="15" y="95" font-family="Arial, sans-serif" font-size="12" fill="#333">3. Validate &amp; Hash Password</text>
      <text x="15" y="115" font-family="Arial, sans-serif" font-size="12" fill="#333">4. Create User Record (DB)</text>
      <text x="15" y="135" font-family="Arial, sans-serif" font-size="12" fill="#ff9800">5. [alt] Create Vault (Fireblocks)</text>
      <text x="15" y="155" font-family="Arial, sans-serif" font-size="12" fill="#333">6. Sync Wallets</text>
      <text x="15" y="175" font-family="Arial, sans-serif" font-size="12" fill="#333">7. Generate JWT Tokens</text>
      <text x="15" y="195" font-family="Arial, sans-serif" font-size="12" fill="#333">8. Set httpOnly Cookies</text>
      <text x="15" y="215" font-family="Arial, sans-serif" font-size="12" fill="#333">9. Redirect to Dashboard</text>
    </g>
    
    <!-- Token Creation Flow -->
    <g transform="translate(650, 850)">
      <rect x="0" y="0" width="380" height="320" fill="#f3e5f5" stroke="#9c27b0" stroke-width="2" rx="8"/>
      <rect x="0" y="0" width="380" height="30" fill="#9c27b0" rx="8"/>
      <text x="190" y="22" text-anchor="middle" font-family="Arial, sans-serif" font-size="14" font-weight="bold" fill="#ffffff">Token Creation Flow</text>
      <text x="15" y="55" font-family="Arial, sans-serif" font-size="12" fill="#333">1. Issuer selects asset</text>
      <text x="15" y="75" font-family="Arial, sans-serif" font-size="12" fill="#333">2. Fills tokenization form</text>
      <text x="15" y="95" font-family="Arial, sans-serif" font-size="12" fill="#333">3. POST /api/assets/tokenize</text>
      <text x="15" y="115" font-family="Arial, sans-serif" font-size="12" fill="#333">4. Validate tokenization</text>
      <text x="15" y="135" font-family="Arial, sans-serif" font-size="12" fill="#333">5. Create token record (DB)</text>
      <text x="15" y="155" font-family="Arial, sans-serif" font-size="12" fill="#333">6. Generate VC for token</text>
      <text x="15" y="175" font-family="Arial, sans-serif" font-size="12" fill="#333">7. Prepare smart contract</text>
      <text x="15" y="195" font-family="Arial, sans-serif" font-size="12" fill="#333">8. Execute token minting</text>
      <text x="15" y="215" font-family="Arial, sans-serif" font-size="12" fill="#333">9. Update token status</text>
      <text x="15" y="235" font-family="Arial, sans-serif" font-size="12" fill="#333">10. Store metadata (IPFS)</text>
      <text x="15" y="255" font-family="Arial, sans-serif" font-size="12" fill="#333">11. Verify asset (Truvera)</text>
    </g>
    
    <!-- Marketplace Flow -->
    <g transform="translate(650, 1210)">
      <rect x="0" y="0" width="380" height="220" fill="#e0f2f1" stroke="#00bcd4" stroke-width="2" rx="8"/>
      <rect x="0" y="0" width="380" height="30" fill="#00bcd4" rx="8"/>
      <text x="190" y="22" text-anchor="middle" font-family="Arial, sans-serif" font-size="14" font-weight="bold" fill="#ffffff">Marketplace Flow</text>
      <text x="15" y="55" font-family="Arial, sans-serif" font-size="12" fill="#333">1. List token on marketplace</text>
      <text x="15" y="75" font-family="Arial, sans-serif" font-size="12" fill="#333">2. Investor discovers/buys</text>
      <text x="15" y="95" font-family="Arial, sans-serif" font-size="12" fill="#333">3. Process transaction</text>
      <text x="15" y="115" font-family="Arial, sans-serif" font-size="12" fill="#333">4. Update ownership</text>
      <text x="15" y="135" font-family="Arial, sans-serif" font-size="12" fill="#333">5. Trigger smart contract event</text>
      <text x="15" y="155" font-family="Arial, sans-serif" font-size="12" fill="#333">6. Update database records</text>
    </g>
  </g>
  
  <!-- ON-CHAIN SECTION -->
  <g id="onchain-section">
    <!-- Section Header -->
    <rect x="1540" y="120" width="820" height="1440" fill="#e8f5e9" stroke="#4caf50" stroke-width="3" rx="8"/>
    <rect x="1550" y="130" width="800" height="50" fill="#4caf50" rx="5"/>
    <text x="1950" y="160" text-anchor="middle" font-family="Arial, sans-serif" font-size="22" font-weight="bold" fill="#ffffff">ON-CHAIN</text>
    
    <!-- DID Registry -->
    <g transform="translate(1620, 220)">
      <rect x="0" y="0" width="200" height="110" fill="#ffffff" stroke="#4caf50" stroke-width="2" rx="8" filter="url(#shadow)"/>
      <path d="M 100 35 L 120 50 L 100 65 L 80 50 Z" fill="#4caf50"/>
      <text x="100" y="95" text-anchor="middle" font-family="Arial, sans-serif" font-size="14" font-weight="bold" fill="#333">DID Registry</text>
    </g>
    
    <!-- Tokenization -->
    <g transform="translate(1870, 220)">
      <rect x="0" y="0" width="200" height="110" fill="#ffffff" stroke="#4caf50" stroke-width="2" rx="8" filter="url(#shadow)"/>
      <rect x="75" y="40" width="50" height="50" fill="#4caf50" opacity="0.2" rx="5"/>
      <rect x="80" y="45" width="40" height="40" fill="#4caf50" rx="3"/>
      <text x="100" y="95" text-anchor="middle" font-family="Arial, sans-serif" font-size="14" font-weight="bold" fill="#333">Tokenization</text>
    </g>
    
    <!-- Marketplace -->
    <g transform="translate(1745, 380)">
      <rect x="0" y="0" width="200" height="110" fill="#ffffff" stroke="#4caf50" stroke-width="2" rx="8" filter="url(#shadow)"/>
      <path d="M 80 45 L 120 45 L 120 60 L 100 75 L 80 60 Z" fill="#4caf50"/>
      <circle cx="90" cy="52" r="3" fill="#ffffff"/>
      <circle cx="110" cy="52" r="3" fill="#ffffff"/>
      <text x="100" y="95" text-anchor="middle" font-family="Arial, sans-serif" font-size="14" font-weight="bold" fill="#333">Marketplace</text>
    </g>
    
    <!-- Smart Contract Events -->
    <g transform="translate(1745, 540)">
      <rect x="0" y="0" width="200" height="90" fill="#ffffff" stroke="#4caf50" stroke-width="2" rx="8" filter="url(#shadow)"/>
      <path d="M 70 35 Q 100 45 130 35" stroke="#4caf50" stroke-width="3" fill="none"/>
      <path d="M 70 50 Q 100 60 130 50" stroke="#4caf50" stroke-width="3" fill="none"/>
      <text x="100" y="75" text-anchor="middle" font-family="Arial, sans-serif" font-size="12" font-weight="bold" fill="#333">Smart Contract</text>
      <text x="100" y="88" text-anchor="middle" font-family="Arial, sans-serif" font-size="12" fill="#333">Events</text>
    </g>
    
    <!-- Token Standards -->
    <g transform="translate(1620, 680)">
      <rect x="0" y="0" width="360" height="120" fill="#ffffff" stroke="#4caf50" stroke-width="2" rx="8" filter="url(#shadow)"/>
      <text x="180" y="30" text-anchor="middle" font-family="Arial, sans-serif" font-size="16" font-weight="bold" fill="#333">Supported Token Standards</text>
      <text x="60" y="60" font-family="Arial, sans-serif" font-size="14" fill="#333">• ERC-20</text>
      <text x="180" y="60" font-family="Arial, sans-serif" font-size="14" fill="#333">• ERC-721</text>
      <text x="300" y="60" font-family="Arial, sans-serif" font-size="14" fill="#333">• ERC-1155</text>
      <text x="60" y="85" font-family="Arial, sans-serif" font-size="14" fill="#333">• ERC-1400</text>
      <text x="180" y="85" font-family="Arial, sans-serif" font-size="14" fill="#333">• Custom Standards</text>
    </g>
    
    <!-- Connections -->
    <line x1="1720" y1="275" x2="1870" y2="275" stroke="#4caf50" stroke-width="2" marker-end="url(#arrowhead-green)"/>
    <text x="1795" y="270" text-anchor="middle" font-family="Arial, sans-serif" font-size="11" fill="#4caf50">Mint Token</text>
    
    <line x1="1970" y1="330" x2="1970" y2="380" stroke="#4caf50" stroke-width="2" marker-end="url(#arrowhead-green)"/>
    <text x="1985" y="355" text-anchor="middle" font-family="Arial, sans-serif" font-size="11" fill="#4caf50">Ownership Update</text>
    
    <line x1="1970" y1="330" x2="1970" y2="540" stroke="#4caf50" stroke-width="2" stroke-dasharray="3,3"/>
    <line x1="1845" y1="435" x2="1845" y2="540" stroke="#4caf50" stroke-width="2" stroke-dasharray="3,3"/>
    <text x="1905" y="545" text-anchor="middle" font-family="Arial, sans-serif" font-size="10" fill="#4caf50">Events</text>
  </g>
  
  <!-- Connection: Express to DID Registry -->
  <line x1="1480" y1="270" x2="1620" y2="275" stroke="#4caf50" stroke-width="2" marker-end="url(#arrowhead-green)"/>
  <text x="1550" y="265" text-anchor="middle" font-family="Arial, sans-serif" font-size="11" fill="#4caf50">Register DID</text>
  
  <!-- Connection: Marketplace to Backend -->
  <line x1="1540" y1="435" x2="1480" y2="435" stroke="#2196f3" stroke-width="2" marker-end="url(#arrowhead-blue)"/>
  <text x="1510" y="430" text-anchor="middle" font-family="Arial, sans-serif" font-size="10" fill="#2196f3">List Token</text>
  
  <line x1="1540" y1="460" x2="1480" y2="460" stroke="#2196f3" stroke-width="2" marker-end="url(#arrowhead-blue)"/>
  <text x="1510" y="455" text-anchor="middle" font-family="Arial, sans-serif" font-size="10" fill="#2196f3">Discover/Buy</text>
  
  <!-- Legend -->
  <g transform="translate(1620, 850)">
    <rect x="0" y="0" width="320" height="180" fill="#ffffff" stroke="#333" stroke-width="2" rx="8" filter="url(#shadow)"/>
    <rect x="0" y="0" width="320" height="30" fill="#2c3e50" rx="8"/>
    <text x="160" y="22" text-anchor="middle" font-family="Arial, sans-serif" font-size="16" font-weight="bold" fill="#ffffff">Legend</text>
    <line x1="20" y1="50" x2="60" y2="50" stroke="#333" stroke-width="2" marker-end="url(#arrowhead)"/>
    <text x="70" y="55" font-family="Arial, sans-serif" font-size="12" fill="#333">Data flow</text>
    <line x1="20" y1="80" x2="60" y2="80" stroke="#4caf50" stroke-width="2" marker-end="url(#arrowhead-green)"/>
    <text x="70" y="85" font-family="Arial, sans-serif" font-size="12" fill="#333">On-chain operation</text>
    <line x1="20" y1="110" x2="60" y2="110" stroke="#2196f3" stroke-width="2" marker-end="url(#arrowhead-blue)"/>
    <text x="70" y="115" font-family="Arial, sans-serif" font-size="12" fill="#333">Off-chain service</text>
    <rect x="20" y="135" width="40" height="20" fill="#fff3e0" stroke="#ff9800" stroke-width="1" rx="3"/>
    <text x="70" y="150" font-family="Arial, sans-serif" font-size="12" fill="#333">User Section</text>
    <rect x="20" y="160" width="40" height="20" fill="#e8f5e9" stroke="#4caf50" stroke-width="1" rx="3"/>
    <text x="70" y="175" font-family="Arial, sans-serif" font-size="12" fill="#333">Blockchain Section</text>
  </g>
</svg>